<?xml version="1.0" encoding="utf-8"?>
<!-- Generator: Adobe Illustrator 28.3.0, SVG Export Plug-In . SVG Version: 6.00 Build 0)  -->
<svg version="1.1" id="Layer_1" xmlns="http://www.w3.org/2000/svg" xmlns:xlink="http://www.w3.org/1999/xlink" x="0px" y="0px"
	 viewBox="0 0 30.4 24" style="enable-background:new 0 0 30.4 24;" xml:space="preserve">
<path d="M3.4,17.9c-0.4,0-0.8-0.2-1.1-0.5c-0.3-0.3-0.5-0.7-0.5-1.1V7.7c0-0.4,0.2-0.8,0.5-1.1S3,6.1,3.4,6.1H5
	c0.4,0,0.8,0.2,1.1,0.5s0.5,0.7,0.5,1.1v8.6c0,0.4-0.2,0.8-0.5,1.1c-0.3,0.3-0.7,0.5-1.1,0.5H3.4L3.4,17.9z M8.9,17.9
	c-0.4,0-0.8-0.2-1.1-0.5c-0.3-0.3-0.5-0.7-0.5-1.1V7.7c0-0.4,0.2-0.8,0.5-1.1C8,6.3,8.4,6.1,8.9,6.1h1.5c0.4,0,0.8,0.2,1.1,0.5
	C11.8,6.9,12,7.3,12,7.7v8.6c0,0.4-0.2,0.8-0.5,1.1c-0.3,0.3-0.7,0.5-1.1,0.5H8.9z M14.6,17.9c-0.4,0-0.8-0.2-1.1-0.5
	c-0.3-0.3-0.5-0.7-0.5-1.1V7.7c0-0.4,0.2-0.8,0.5-1.1s0.7-0.5,1.1-0.5h1.6c0.4,0,0.8,0.2,1.1,0.5s0.5,0.7,0.5,1.1v8.6
	c0,0.4-0.2,0.8-0.5,1.1c-0.3,0.3-0.7,0.5-1.1,0.5H14.6L14.6,17.9z M20,17.9c-0.4,0-0.8-0.2-1.1-0.5c-0.3-0.3-0.5-0.7-0.5-1.1V7.7
	c0-0.4,0.2-0.8,0.5-1.1s0.7-0.5,1.1-0.5h1.5c0.4,0,0.8,0.2,1.1,0.5c0.3,0.3,0.5,0.7,0.5,1.1v8.6c0,0.4-0.2,0.8-0.5,1.1
	c-0.3,0.3-0.7,0.5-1.1,0.5H20z M25.5,17.9c-0.4,0-0.8-0.2-1.1-0.5c-0.3-0.3-0.5-0.7-0.5-1.1V7.7c0-0.4,0.2-0.8,0.5-1.1
	c0.3-0.3,0.7-0.5,1.1-0.5H27c0.4,0,0.8,0.2,1.1,0.5s0.5,0.7,0.5,1.1v8.6c0,0.4-0.2,0.8-0.5,1.1c-0.3,0.3-0.7,0.5-1.1,0.5H25.5z"/>
</svg>
