<?xml version="1.0" encoding="UTF-8"?><svg id="Layer_1" xmlns="http://www.w3.org/2000/svg" width="16.44" height="16.44" viewBox="0 0 16.44 16.44"><defs><style>.cls-1{fill:#28e586;}</style></defs><path class="cls-1" d="M13.44,0H3C1.34,0,0,1.34,0,3v10.44c0,1.66,1.34,3,3,3h10.44c1.66,0,3-1.34,3-3V3c0-1.66-1.34-3-3-3ZM11.96,10.44c-1.23,1.31-2.97,2.12-5.02,2.6-.8.19-1.63.33-2.48.4-.37.03-.43-.01-.31-.27,1.08-2.34,2.73-4.38,5.36-5.88.02-.01.03-.03.04-.04-.54.08-1.85.8-2.84,1.56-.83.64-1.53,1.37-2.14,2.15-.61.77-1.08,1.59-1.54,2.44,0,0,0,0,0,0h0s0,0,0,0c-.22-.57-.3-1.13-.31-1.7-.05-2.12,1.15-3.75,3.15-5.07,1.22-.81,2.6-1.48,3.87-2.24.87-.52,1.68-1.08,2.15-1.86.03-.05.05-.13.14-.13.11,0,.14.1.19.16.98,1.39,1.45,2.83,1.32,4.34-.11,1.31-.6,2.5-1.58,3.54Z"/></svg>