<svg id="Група_1" data-name="Група 1" xmlns="http://www.w3.org/2000/svg" width="743" height="467" viewBox="0 0 743 467">
  <defs>
    <style>
      .cls-1 {
        fill-rule: evenodd;
      }
    </style>
  </defs>
  <path id="Brand_berry_копія" data-name="Brand berry копія" class="cls-1" d="M703.682,213.8V187.888a60.117,60.117,0,0,1-20.3,21.933,51.812,51.812,0,0,1-28.247,7.8q-19.13,0-33.395-10.01t-22.214-27.969q-7.944-17.953-7.945-41.806t7.945-41.659Q607.469,78.37,621.739,68.5t33.395-9.863a51.811,51.811,0,0,1,28.247,7.8,60.821,60.821,0,0,1,20.3,21.639V2.7h36.191V213.8H703.682Zm-9.856-111.14q-9.861-12.51-27.805-12.512-17.654,0-27.511,12.512t-9.856,35.182q0,22.965,9.856,35.624t27.511,12.659q17.943,0,27.805-12.659t9.856-35.624Q703.682,115.172,693.826,102.656Zm-156.8,23.7q0-17.953-8.974-26.349t-23.98-8.391q-14.419,0-23.832,9.274T470.828,124.3v89.5H434.343V63.058h36.485v22.67a57.816,57.816,0,0,1,21.038-20.02,52.8,52.8,0,0,1,25.745-7.066q24.122,0,39.868,15.456t15.741,44.6V213.8H537.03v-87.44ZM468.131,286.9q7.35-12.951,18.242-19.872t22.067-6.919h8.827v37.1h-8.533q-17.364,0-28.981,9.274a29.289,29.289,0,0,0-11.622,23.994V413.8H431.646V263.058h36.485V286.9ZM382.68,306.484a29.289,29.289,0,0,0-11.622,23.994V413.8H334.573V263.058h36.485V286.9q7.351-12.951,18.242-19.872t22.068-6.919H420.2v37.1h-8.533Q394.3,297.21,382.68,306.484Zm-7.006-116.241a55.188,55.188,0,0,1-20.449,19.873,58.024,58.024,0,0,1-28.982,7.213,53.915,53.915,0,0,1-25.745-6.036,45.745,45.745,0,0,1-17.8-16.487q-6.476-10.446-6.473-24.288,0-20.018,11.622-31.355t33.689-12.807l39.427-2.649q7.944-.291,11.328-3.239t3.384-9.127v-0.588q0-10.3-8.533-17.518a30.857,30.857,0,0,0-20.6-7.213q-28.839,0-31.777,24.436H277.4q1.765-23.253,20.449-37.39t48.4-14.132q19.419,0,34.131,7.36a57.928,57.928,0,0,1,23.1,20.167,52.277,52.277,0,0,1,8.385,29.294V213.8h-36.19V190.243Zm0-42.395-40.9,2.355Q313,151.681,313,168.751a17.722,17.722,0,0,0,7.208,14.721q7.207,5.595,19.272,5.593,15.3,0,25.746-10.3t10.445-25.613v-5.3ZM234.117,106.484A29.289,29.289,0,0,0,222.5,130.478V213.8H186.01V63.058H222.5V86.906q7.351-12.952,18.242-19.873T262.8,60.114h8.827v37.1H263.1Q245.735,97.21,234.117,106.484ZM201.463,269.535q16.475-9.419,38.839-9.421,22.067,0,38.985,10.01a71.851,71.851,0,0,1,26.628,27.527q9.709,17.52,9.71,39.893v9.421H204.406q3.529,40.043,37.955,40.04,14.124,0,22.509-6.036a25.909,25.909,0,0,0,10.445-16.928h38.544q-4.71,25.91-22.95,39.009t-48.842,13.1q-22.95,0-39.868-9.568a64.748,64.748,0,0,1-26.04-27.086q-9.123-17.512-9.121-41.659t8.974-41.511A63.918,63.918,0,0,1,201.463,269.535Zm75.323,52.4q-1.474-15.9-11.328-25.319T240.6,287.2q-30.308,0-35.6,34.74h71.792ZM152.8,130.772q9.711,13.547,9.71,31.5,0,22.964-15.153,37.243T107.486,213.8H39.224v74.287A56.264,56.264,0,0,1,59.379,266.3a53.291,53.291,0,0,1,28.393-7.655q18.826,0,33.1,9.863t22.215,27.674q7.944,17.817,7.944,41.659t-7.944,41.806q-7.944,17.963-22.215,27.969t-33.1,10.01a52.547,52.547,0,0,1-28.393-7.8,57.888,57.888,0,0,1-20.155-21.639V413.8H2.74V202.7H3.034V17.719h93.86q25.3,0,40.9,13.837t15.594,35.918a48.987,48.987,0,0,1-7.209,26.35,45.665,45.665,0,0,1-19.566,17.517A53.538,53.538,0,0,1,152.8,130.772ZM48.934,373.462q9.71,12.662,27.658,12.659,17.654,0,27.51-12.659t9.857-35.624q0-22.667-9.857-35.182t-27.51-12.512q-17.95,0-27.658,12.512t-9.71,35.182Q39.224,360.8,48.934,373.462ZM109.693,55.4q-6.621-6.472-17.213-6.477H39.519V98.387H92.48q10.592,0,17.213-6.919t6.62-18.7Q116.313,61.885,109.693,55.4Zm7.8,81.7q-7.944-7.507-21.185-7.507H39.519v52.993h59.14q12.062,0,19.419-6.918t7.356-18.695Q125.434,144.609,117.49,137.1ZM567.4,263.058l39.133,110.993,37.956-110.993h38.544l-57.081,156.92q-8.827,24.73-21.92,34.741t-36.926,10.01H538.275V432.344h19.714q9.709,0,15.3-3.533t8.827-12.071l2.942-7.655-55.9-146.027H567.4Z"/>
</svg>
